<svg xmlns="http://www.w3.org/2000/svg" fill="none" viewBox="0 0 160 28" height="28" width="160">
<g clip-path="url(#clip0_3146_107)">
<path fill="black" d="M90.1873 14.0749V13.9988C90.1873 6.6526 95.8271 0.5 103.805 0.5C111.784 0.5 117.348 6.57886 117.348 13.9251V13.9988C117.348 21.3474 111.708 27.5 103.73 27.5C95.7515 27.5 90.1873 21.4211 90.1873 14.0749ZM112.561 14.0749V14.0012C112.561 8.92929 108.886 4.71465 103.73 4.71465C98.5737 4.71465 94.9743 8.85555 94.9743 13.9274V14.0012C94.9743 19.073 98.6471 23.2877 103.805 23.2877C108.964 23.2877 112.563 19.1468 112.563 14.0749H112.561Z" clip-rule="evenodd" fill-rule="evenodd"></path>
<path fill="black" d="M0.371405 0.947041L9.46084 13.7765L0 27.053H5.23177L12.0959 17.1696L18.9233 27.053H24.3041L14.8791 13.7016L23.9327 0.947041H18.7009L12.2082 10.3073L5.7522 0.947041H0.371405Z"></path>
<path fill="black" d="M69.2609 27.0507L69.2625 27.053L69.2648 27.0507H69.2609Z"></path>
<path fill="black" d="M61.385 15.8838L69.2609 27.0507H63.884L56.0639 15.9368H52.3315V11.8351H58.4665C61.7312 11.8351 63.8083 10.5585 63.8083 8.51682V8.45921C63.8083 6.30234 61.8046 5.12252 58.4276 5.12482H49.4703V0.94474H58.799C62.0637 0.94474 68.4463 2.73752 68.4463 8.28408V8.36012C68.4371 12.5241 65.1266 15.0819 61.385 15.8838Z"></path>
<path fill="black" d="M70.175 23.2116L73.1806 20.1169C74.7029 22.0571 76.2229 23.1747 78.4124 23.1747C80.8609 23.1747 82.5299 21.534 82.5299 18.066V0.947041H87.2046V18.1766C87.2046 21.2714 86.3128 23.5849 84.7927 25.115C83.2727 26.6451 81.0833 27.4263 78.4857 27.4263C74.4782 27.4263 71.8807 25.562 70.175 23.2116Z"></path>
<path fill="black" d="M120.344 0.947041V27.053H124.909V15.9391H136.184V11.8374H124.909V5.05108H138.889V0.947041H120.344Z"></path>
<path fill="black" d="M141.455 27.053V0.947041H159.998V5.05108H146.017V11.8374H157.292V15.9391H146.017V27.053H141.455Z"></path>
<path fill="black" d="M46.3408 0.947041H27.7958V27.0553H46.3408V22.9512H32.3604V15.9391H44.4723V11.8374H32.3604V5.05108H46.3408V0.947041Z"></path>
</g>
<defs>
<clipPath id="clip0_3146_107">
<rect transform="translate(0 0.5)" fill="white" height="27" width="160"></rect>
</clipPath>
</defs>
</svg>
